{"title":"The.Quiet.Ones.2014.AVI.BRRip.360p.DivX.NLSub.{Th3Sp3cialist}","uid":11108152,"size":1139838731,"categoryP":"video","categoryS":"hd___movies","magnet":"?xt=urn:btih:05d543dbf2c54e716822d53a52c543bebea8ae80&amp;dn=The.Quiet.Ones.2014.AVI.BRRip.360p.DivX.NLSub.%7BTh3Sp3cialist%7D&amp;tr=udp%3A%2F%2Ftracker.openbittorrent.com%3A80&amp;tr=udp%3A%2F%2Fopen.demonii.com%3A1337&amp;tr=udp%3A%2F%2Ftracker.coppersurfer.tk%3A6969&amp;tr=udp%3A%2F%2Fexodus.desync.com%3A6969","seeders":4,"leechers":1,"uploader":"HOLLANDmovies","files":-1,"time":1411754859,"description":"THE QUIET ONES DivX 360p \n\nINFO\n\nThe Quiet Ones (2014)\n98 min - Horror\n\nA university professor and a team of students conduct an experiment on a young woman, uncovering terrifyingly dark, unexpected forces in the process.\n\nDirector: John Pogue\nWriters: Craig Rosenberg (screenplay), Oren Moverman (screenplay),\nStars: Jared Harris, Sam Claflin, Olivia Cooke \n &lt;a href=&quot;\nhttp://www.ephotobay.com/image/the-quiet-ones-2014-avi-brrip-360p-divx-nlsubs-t.jpg&quot; rel=&quot;nofollow&quot; target=&quot;_NEW&quot;&gt;\nhttp://www.ephotobay.com/image/the-quiet-ones-2014-avi-brrip-360p-divx-nlsubs-t.jpg&lt;/a&gt; &lt;a href=&quot;\nhttp://www.ephotobay.com/image/the-quiet-ones-2014-avi-brrip-360p-divx-nlsubs-1.jpg&quot; rel=&quot;nofollow&quot; target=&quot;_NEW&quot;&gt;\nhttp://www.ephotobay.com/image/the-quiet-ones-2014-avi-brrip-360p-divx-nlsubs-1.jpg&lt;/a&gt;\n\nComplete name                  : The.Quiet.Ones.2014.AVI.BRRip.360p.DivX.NLaudio.{Th3Sp3cialist}.avi\nFormat                         : AVI\nFormat/Info                    : Audio Video Interleave\nFile size                      : 1.04 GiB\nDuration                       : 1h 38mn\nOverall bit rate               : 1 520 Kbps\n\nVideo\nID                             : 0\nFormat                         : MPEG-4 Visual\nFormat profile                 : Advanced Simple@L5\nFormat settings, BVOP          : No\nFormat settings, QPel          : No\nFormat settings, GMC           : No warppoints\nFormat settings, Matrix        : Default (H.263)\nCodec ID                       : XVID\nCodec ID/Hint                  : XviD\nDuration                       : 1h 38mn\nBit rate                       : 1 191 Kbps\nWidth                          : 640 pixels\nHeight                         : 360 pixels\nDisplay aspect ratio           : 16:9\nFrame rate                     : 23.976 fps\nColor space                    : YUV\nChroma subsampling             : 4:2:0\nBit depth                      : 8 bits\nScan type                      : Progressive\nCompression mode               : Lossy\nBits/(Pixel*Frame)             : 0.216\nStream size                    : 837 MiB (78%)\nWriting library                : XviD 62\n\nAudio\nID                             : 1\nFormat                         : MPEG Audio\nFormat version                 : Version 1\nFormat profile                 : Layer 3\nCodec ID                       : 55\nCodec ID/Hint                  : MP3\nDuration                       : 1h 38mn\nBit rate mode                  : Constant\nBit rate                       : 320 Kbps\nChannel(s)                     : 2 channels\nSampling rate                  : 48.0 KHz\nCompression mode               : Lossy\nStream size                    : 225 MiB (21%)\nAlignment                      : Aligned on interleaves\nInterleave, duration           : 42 ms (1.00 video frame)\n\n\n","torrent":{"xt":"urn:btih:05d543dbf2c54e716822d53a52c543bebea8ae80","amp;dn":"The.Quiet.Ones.2014.AVI.BRRip.360p.DivX.NLSub.%7BTh3Sp3cialist%7D","amp;tr":["udp%3A%2F%2Ftracker.openbittorrent.com%3A80","udp%3A%2F%2Fopen.demonii.com%3A1337","udp%3A%2F%2Ftracker.coppersurfer.tk%3A6969","udp%3A%2F%2Fexodus.desync.com%3A6969"],"infoHash":"05d543dbf2c54e716822d53a52c543bebea8ae80","infoHashBuffer":{"type":"Buffer","data":[5,213,67,219,242,197,78,113,104,34,213,58,82,197,67,190,190,168,174,128]},"announce":[],"urlList":[]}}